<svg width="48" height="48" viewBox="0 0 48 48" fill="none" xmlns="http://www.w3.org/2000/svg">
<rect width="48" height="48" rx="15" fill="#2D9CDB" fill-opacity="0.15"/>
<path d="M15.5 36.75H32.5C33.6272 36.75 34.7082 36.3023 35.5052 35.5052C36.3022 34.7082 36.75 33.6272 36.75 32.5V15.5C36.75 14.3729 36.3022 13.2919 35.5052 12.4948C34.7082 11.6978 33.6272 11.25 32.5 11.25H31.0833C31.0833 10.8743 30.9341 10.514 30.6684 10.2483C30.4027 9.98263 30.0424 9.83337 29.6667 9.83337C29.2909 9.83337 28.9306 9.98263 28.6649 10.2483C28.3993 10.514 28.25 10.8743 28.25 11.25H19.75C19.75 10.8743 19.6007 10.514 19.3351 10.2483C19.0694 9.98263 18.7091 9.83337 18.3333 9.83337C17.9576 9.83337 17.5973 9.98263 17.3316 10.2483C17.0659 10.514 16.9167 10.8743 16.9167 11.25H15.5C14.3728 11.25 13.2918 11.6978 12.4948 12.4948C11.6978 13.2919 11.25 14.3729 11.25 15.5V32.5C11.25 33.6272 11.6978 34.7082 12.4948 35.5052C13.2918 36.3023 14.3728 36.75 15.5 36.75ZM14.0833 15.5C14.0833 15.1243 14.2326 14.764 14.4983 14.4983C14.7639 14.2326 15.1243 14.0834 15.5 14.0834H16.9167V15.5C16.9167 15.8758 17.0659 16.2361 17.3316 16.5018C17.5973 16.7675 17.9576 16.9167 18.3333 16.9167C18.7091 16.9167 19.0694 16.7675 19.3351 16.5018C19.6007 16.2361 19.75 15.8758 19.75 15.5V14.0834H28.25V15.5C28.25 15.8758 28.3993 16.2361 28.6649 16.5018C28.9306 16.7675 29.2909 16.9167 29.6667 16.9167C30.0424 16.9167 30.4027 16.7675 30.6684 16.5018C30.9341 16.2361 31.0833 15.8758 31.0833 15.5V14.0834H32.5C32.8757 14.0834 33.2361 14.2326 33.5017 14.4983C33.7674 14.764 33.9167 15.1243 33.9167 15.5V19.75H14.0833V15.5ZM14.0833 22.5834H33.9167V32.5C33.9167 32.8758 33.7674 33.2361 33.5017 33.5018C33.2361 33.7675 32.8757 33.9167 32.5 33.9167H15.5C15.1243 33.9167 14.7639 33.7675 14.4983 33.5018C14.2326 33.2361 14.0833 32.8758 14.0833 32.5V22.5834Z" fill="#2D9CDB"/>
</svg>
